<svg width="272" height="48" viewBox="0 0 272 48" fill="none" xmlns="http://www.w3.org/2000/svg">
<path fill-rule="evenodd" clip-rule="evenodd" d="M0 0H48V48H0V0ZM24.0654 16.5062L36.4627 30.1764L31.2428 39.4743L24.0654 35.1618L16.8881 39.4743L11.6681 30.1764L24.0654 16.5062ZM29.6279 16.5688L37.2447 8V16.5688V25.1377L29.6279 16.5688ZM11 8.37257L18.6167 16.9414L11 25.5102L11 8.37257Z" fill="white"/>
<path fill-rule="evenodd" clip-rule="evenodd" d="M272 0H54V48H272V0ZM87.3584 32.8771C85.0036 35.8016 81.3194 37.6247 77.0275 37.6247C69.6592 37.6247 64 32.1174 64 25.015C64 17.9505 69.6592 12.3672 77.0275 12.3672C81.2055 12.3672 84.8516 14.1524 87.2065 17.0009L83.1045 20.1914C81.6992 18.4442 79.4963 17.3808 77.0275 17.3808C72.7357 17.3808 69.2794 20.5332 69.2794 25.015C69.2794 29.4967 72.7357 32.6492 77.0275 32.6492C79.5343 32.6492 81.7752 31.5477 83.1805 29.7246L87.3584 32.8771ZM241.1 37.131H259.74V32.3074H246.379L246.417 12.823H241.1V37.131ZM204.851 32.8771C202.496 35.8016 198.812 37.6247 194.52 37.6247C187.151 37.6247 181.492 32.1174 181.492 25.015C181.492 17.9505 187.151 12.3672 194.52 12.3672C198.698 12.3672 202.344 14.1524 204.699 17.0009L200.597 20.1914C199.191 18.4442 196.989 17.3808 194.52 17.3808C190.228 17.3808 186.772 20.5332 186.772 25.015C186.772 29.4967 190.228 32.6492 194.52 32.6492C197.027 32.6492 199.267 31.5477 200.673 29.7246L204.851 32.8771ZM146.953 37.131L137.8 28.0155C143.041 27.8256 145.928 25.3188 145.928 20.5712C145.928 15.7096 142.395 12.823 136.736 12.823H125.19V37.131H130.507V26.99L139.851 37.131H146.953ZM130.507 17.6086H137.192C139.205 17.6086 140.496 18.6341 140.496 20.5712C140.496 22.5842 139.205 23.5717 137.192 23.5717H130.507V17.6086ZM97.2194 37.131H91.6418L105.166 12.8652L118.545 37.131H113.077L110.707 32.7653H99.5524L97.2194 37.131ZM105.13 22.3605L101.849 28.5088H108.411L105.13 22.3605ZM151.251 37.131H156.829L159.162 32.7653H170.317L172.686 37.131H178.154L164.776 12.8652L151.251 37.131ZM161.458 28.5088L164.739 22.3605L168.02 28.5088H161.458ZM214.328 37.131H208.75L222.275 12.8652L235.654 37.131H230.185L227.816 32.7653H216.661L214.328 37.131ZM222.238 22.3605L218.958 28.5088H225.519L222.238 22.3605Z" fill="white"/>
</svg>
